<svg xmlns="http://www.w3.org/2000/svg" xmlns:xlink="http://www.w3.org/1999/xlink" viewBox="0 0 68.22 23.81"><defs><style>.cls-1{fill:none;}.cls-2{isolation:isolate;}.cls-3{clip-path:url(#clip-path);}.cls-4{fill:#6875f5;}.cls-5{mix-blend-mode:overlay;}.cls-6{fill:#fff;}</style><clipPath id="clip-path" transform="translate(1.45)"><rect class="cls-1" width="21.38" height="21.38" rx="1"/></clipPath></defs><g class="cls-2"><g id="レイヤー_2" data-name="レイヤー 2"><g id="レイヤー_1-2" data-name="レイヤー 1"><path d="M23.26,6.94h2.68c2.86,0,3.4,1.6,3.4,3.93v5.2c0,2-.34,4.24-3.44,4.24H23.26Zm1.8,11.83h.72c1.46,0,1.74-.88,1.74-2.42V10.7c0-1.36-.24-2.22-1.74-2.22h-.72Z" transform="translate(1.45)"/><path d="M36.37,13.09v4.1c0,2.2-1.08,3.28-2.9,3.28s-2.86-1.08-2.86-3.26V13c0-2.14,1.18-3.17,2.92-3.17S36.37,11,36.37,13.09Zm-4-.1v4.28c0,1,.3,1.6,1.1,1.6s1.06-.52,1.06-1.62V13c0-.88-.26-1.54-1.08-1.54S32.41,12,32.41,13Z" transform="translate(1.45)"/><path d="M43,17v.14c0,1.82-.46,3.36-2.74,3.36s-2.69-1.5-2.69-3.62V13.13c0-1.7.61-3.27,2.79-3.27,2.34,0,2.64,1.71,2.64,3v.4H41.22v-.4c0-.86-.12-1.5-.9-1.5s-.94.52-.94,1.54v4.44c0,.8.16,1.58.94,1.58s.9-.54.9-1.56V17Z" transform="translate(1.45)"/><path d="M49.77,13.09v4.1c0,2.2-1.08,3.28-2.9,3.28S44,19.39,44,17.21V13c0-2.14,1.18-3.17,2.93-3.17S49.77,11,49.77,13.09Zm-4-.1v4.28c0,1,.3,1.6,1.11,1.6S48,18.35,48,17.25V13c0-.88-.26-1.54-1.08-1.54S45.8,12,45.8,13Z" transform="translate(1.45)"/><path d="M51.27,6.36h1.8V8.5h-1.8Zm0,3.66h1.78V20.31H51.27Z" transform="translate(1.45)"/><path d="M60,17v.14c0,1.82-.46,3.36-2.74,3.36s-2.69-1.5-2.69-3.62V13.13c0-1.7.61-3.27,2.79-3.27,2.34,0,2.64,1.71,2.64,3v.4H58.22v-.4c0-.86-.12-1.5-.9-1.5s-.94.52-.94,1.54v4.44c0,.8.16,1.58.94,1.58s.9-.54.9-1.56V17Z" transform="translate(1.45)"/><path d="M66.77,13.09v4.1c0,2.2-1.08,3.28-2.9,3.28S61,19.39,61,17.21V13c0-2.14,1.18-3.17,2.93-3.17S66.77,11,66.77,13.09Zm-4-.1v4.28c0,1,.3,1.6,1.11,1.6S65,18.35,65,17.25V13c0-.88-.26-1.54-1.08-1.54S62.8,12,62.8,13Z" transform="translate(1.45)"/><path d="M23.36,4.32c0-.21,0-.24,0-.58a2.37,2.37,0,0,1-.46.43,2.07,2.07,0,0,0-.25-.54,3.54,3.54,0,0,0,1.23-1.32l.47.31-.16.22c-.12.17-.16.23-.29.39v2a5.18,5.18,0,0,0,0,.63h-.62a3.55,3.55,0,0,0,0-.63Zm.93-2.79-.15.17A4.87,4.87,0,0,1,23,2.7a2,2,0,0,0-.32-.47,3.29,3.29,0,0,0,.9-.69,2.19,2.19,0,0,0,.24-.35ZM25,3.25a5.16,5.16,0,0,0-.61,0V2.72a5,5,0,0,0,.61,0h1.71a4.4,4.4,0,0,0,.61,0v.56a5.34,5.34,0,0,0-.6,0h-.21v2c0,.43-.15.53-.76.53h-.55A1.86,1.86,0,0,0,25,5.2c.27,0,.53,0,.68,0s.23,0,.23-.12V3.25Zm-.41-1.8a4.55,4.55,0,0,0,.58,0h1.36a4.54,4.54,0,0,0,.57,0V2a5,5,0,0,0-.56,0H25.13a5,5,0,0,0-.58,0Z" transform="translate(1.45)"/><path d="M30.78,5.79a1.36,1.36,0,0,0-.12-.17A9.41,9.41,0,0,0,28.77,4c-.3-.18-.41-.33-.41-.52s.07-.3.31-.5c.51-.45,1.09-1,1.61-1.5a1.77,1.77,0,0,0,.19-.23,4.31,4.31,0,0,1,.56.39s0,0,0,0,0,0,0,0l-.19.16c-.62.5-1.16,1-1.66,1.46,0,0-.06.07-.06.1s0,.06.08.09a12.43,12.43,0,0,1,2,1.77l.13.13C31.16,5.53,31,5.67,30.78,5.79Z" transform="translate(1.45)"/><path d="M34.68,4.3a3,3,0,0,1-.61.42,1.31,1.31,0,0,0-.19-.26,10.79,10.79,0,0,1-1,.52l-.06,0,0,0-.13-.59a3,3,0,0,0,.57-.2V2.94h-.15a2.48,2.48,0,0,0-.39,0V2.43a2.36,2.36,0,0,0,.4,0h.14V1.83a4.17,4.17,0,0,0,0-.56h.58a3,3,0,0,0,0,.57v.61h.09a1.68,1.68,0,0,0,.35,0V3a1.94,1.94,0,0,0-.35,0h-.09V4l.33-.18v.34a1.92,1.92,0,0,0,.6-.5h-.11l-.47,0v-.5a2.74,2.74,0,0,0,.47,0h2.19a3.27,3.27,0,0,0,.52,0v.5a3.79,3.79,0,0,0-.51,0H35.21a1.67,1.67,0,0,1-.13.2h2.08a1.85,1.85,0,0,0,0,.29,4.28,4.28,0,0,1-.21,1.36c-.1.23-.26.3-.7.3l-.42,0a1.18,1.18,0,0,0-.14-.46,3.36,3.36,0,0,1-.82.55,1.43,1.43,0,0,0-.36-.38A3,3,0,0,0,35.4,5a2.38,2.38,0,0,0,.52-.66h-.3a3.08,3.08,0,0,1-1.39,1.09A1.22,1.22,0,0,0,33.91,5a2.59,2.59,0,0,0,1.16-.71ZM34.83,3a2.9,2.9,0,0,0-.46,0,3.55,3.55,0,0,0,0-.49V1.81a3.1,3.1,0,0,0,0-.46,2.48,2.48,0,0,0,.51,0h1.46a2.54,2.54,0,0,0,.53,0c0,.15,0,.24,0,.5v.69c0,.22,0,.37,0,.48h-2Zm.08-1h1.42V1.82H34.91Zm0,.57h1.42V2.4H34.91Zm1.53,1.7a3,3,0,0,1-.71,1,3.56,3.56,0,0,0,.52,0c.19,0,.24-.05.29-.27a6.09,6.09,0,0,0,.08-.75Z" transform="translate(1.45)"/><path d="M39.8,3.64c0,.22,0,.28,0,.4H38.49A3.4,3.4,0,0,1,38,5.81a1.61,1.61,0,0,0-.44-.39A4.31,4.31,0,0,0,38,3a6.57,6.57,0,0,0,0-.7l.53,0h.81l.5,0c0,.11,0,.26,0,.45Zm-2-2.22a3.57,3.57,0,0,0,.54,0H39.4a3.22,3.22,0,0,0,.54,0V2a3.49,3.49,0,0,0-.52,0H38.29a3.63,3.63,0,0,0-.51,0Zm1.5,2.14V2.82H38.5v.74Zm1.37-.29a4.59,4.59,0,0,1-.22,1.37,2.62,2.62,0,0,1-.43.81c-.08.1-.15.19-.32.37a1.63,1.63,0,0,0-.42-.41A2.23,2.23,0,0,0,40,4.3a7.11,7.11,0,0,0,.16-1.85,6.94,6.94,0,0,0,0-.79A4.52,4.52,0,0,0,42,1.24l.29.51L42,1.82a7.3,7.3,0,0,1-1.37.3v.63h1.14a3,3,0,0,0,.48,0V3.3a2.68,2.68,0,0,0-.44,0h-.07v2a2.65,2.65,0,0,0,0,.54h-.59a4,4,0,0,0,0-.54v-2Z" transform="translate(1.45)"/><path d="M42.94,2.5a4.92,4.92,0,0,1,.9.63l-.32.46a5.07,5.07,0,0,0-.9-.68Zm.89,1.7a7.83,7.83,0,0,1-.55,1.32l-.16.28-.47-.42a4.49,4.49,0,0,0,.74-1.5Zm-.67-2.94a4.41,4.41,0,0,1,.87.67l-.35.45a3.84,3.84,0,0,0-.87-.72Zm2.59,2.61a2.69,2.69,0,0,0,1.54,1.39,1.89,1.89,0,0,0-.3.57,3.3,3.3,0,0,1-1.57-1.56A2.72,2.72,0,0,1,44,5.87a1.79,1.79,0,0,0-.35-.51A2,2,0,0,0,45,3.87h-.48a4.28,4.28,0,0,0-.56,0V3.31a4.33,4.33,0,0,0,.55,0h.56a8.38,8.38,0,0,0,0-.86h-.41a3.7,3.7,0,0,0-.53,0V1.94a4,4,0,0,0,.53,0h.41V1.7a2.09,2.09,0,0,0,0-.48h.61a2.08,2.08,0,0,0,0,.47V2h.77a4.48,4.48,0,0,0,.46,0,3.59,3.59,0,0,0,0,.4v1l.42,0V3.9a4.33,4.33,0,0,0-.55,0Zm.58-.53V2.48h-.7a6.68,6.68,0,0,1,0,.86Z" transform="translate(1.45)"/><path d="M49.74,3.16H49a3.79,3.79,0,0,0-.51,0V2.65a3.3,3.3,0,0,0,.51,0h1.91a3.36,3.36,0,0,0,.52,0v.53a3.72,3.72,0,0,0-.52,0h-.65V3.8h.95a3.1,3.1,0,0,0,.49,0V4.3a3.48,3.48,0,0,0-.49,0h-.95v.86a6.64,6.64,0,0,0,.81.05c.3,0,.64,0,1.15-.06a1.77,1.77,0,0,0-.14.57H51c-1.17,0-1.83-.25-2.24-.86a3.55,3.55,0,0,1-.68,1,1.42,1.42,0,0,0-.43-.41A3,3,0,0,0,48.53,4a4.66,4.66,0,0,0,.1-.54l.55.1-.07.3a3.67,3.67,0,0,1-.13.45,1.46,1.46,0,0,0,.76.69Zm-.08-1.61a1.66,1.66,0,0,0,0-.32h.61a1.62,1.62,0,0,0,0,.32v.19h1.35l.56,0a2.06,2.06,0,0,0,0,.37v.39a2.48,2.48,0,0,0,0,.39h-.54V2.24H48.35v.63H47.8a2.3,2.3,0,0,0,0-.4V2.09c0-.13,0-.26,0-.37l.55,0h1.31Z" transform="translate(1.45)"/><path d="M57,2a0,0,0,0,1,0,0s0,0,0,.06l-.12.2a3.77,3.77,0,0,1-1.11,1.25l0,0s0,0-.07,0a1.06,1.06,0,0,0-.44-.29,3,3,0,0,0,1-1H54.81l-1.6,0s-.06,0-.06,0a2.53,2.53,0,0,1,0-.28,2.71,2.71,0,0,1,0-.29l1.65,0h1.74c.09,0,.11,0,.16,0Zm-2.47.63c.19,0,.44,0,.64.09,0,0,.07,0,.07.06a.06.06,0,0,1,0,0,.28.28,0,0,0,0,.18,3.87,3.87,0,0,1-.32,1.72,2.3,2.3,0,0,1-.85.94l-.07,0a.1.1,0,0,1-.08,0,1.17,1.17,0,0,0-.45-.31,2.26,2.26,0,0,0,.88-.85,3.46,3.46,0,0,0,.25-1.59Z" transform="translate(1.45)"/><path d="M61.77,2.2s0,0,0,0v0a2.23,2.23,0,0,0-.12.31,4.62,4.62,0,0,1-2,2.69,3.15,3.15,0,0,1-.75.32h-.06a.13.13,0,0,1-.11-.06,1.48,1.48,0,0,0-.44-.46,3.5,3.5,0,0,0,.94-.36A3.73,3.73,0,0,0,61,2.53H59.67l-1.51,0h0c-.05,0-.05,0-.05-.06l0-.6h1.69c.55,0,1.09,0,1.61,0,.06,0,.08,0,.1,0ZM62,2a.4.4,0,0,1-.4-.41.41.41,0,1,1,.81,0A.41.41,0,0,1,62,2Zm0-.62a.21.21,0,0,0-.21.21.21.21,0,0,0,.21.22.22.22,0,1,0,0-.43Z" transform="translate(1.45)"/><path d="M64.33,1.51s.07,0,.07.06a.09.09,0,0,1,0,.05.33.33,0,0,0,0,.13l0,2a2.4,2.4,0,0,0,0,.28h-.65s0,0,0,0h0c0-.08,0-.18,0-.28l0-1.85c0-.12,0-.25,0-.36Zm1.77-.05c.05,0,.07,0,.07.05a.13.13,0,0,1,0,.07.26.26,0,0,0,0,.14V2c0,.33,0,.62,0,1a3.53,3.53,0,0,1-.28,1.74,2.18,2.18,0,0,1-1,1h-.06a.14.14,0,0,1-.09,0,1.27,1.27,0,0,0-.47-.38,1.86,1.86,0,0,0,1-.85,3.2,3.2,0,0,0,.24-1.52c0-.4,0-.8,0-1.19l0-.27Z" transform="translate(1.45)"/><g class="cls-3"><rect class="cls-4" x="1.45" width="21.38" height="21.38"/><g class="cls-5"><path class="cls-6" d="M-1.34,11.16,3.2,22.82a1.58,1.58,0,0,0,2,.89L7.05,23,1.37,8.43l-1.82.71A1.56,1.56,0,0,0-1.34,11.16Z" transform="translate(1.45)"/><path class="cls-6" d="M18,1.94l-1.82.71,5.68,14.57,1.82-.71a1.57,1.57,0,0,0,.89-2L20,2.83A1.57,1.57,0,0,0,18,1.94Z" transform="translate(1.45)"/><path class="cls-6" d="M6.68,9.6a.39.39,0,0,0,.2.52.4.4,0,0,0,.52-.21.38.38,0,0,0-.2-.51A.39.39,0,0,0,6.68,9.6Z" transform="translate(1.45)"/><path class="cls-6" d="M12,1.62A1.27,1.27,0,0,0,10.34.9L4.49,3.17a1.28,1.28,0,0,0-.72,1.66l.9,2.31-1.84.72L8.51,22.43l11.9-4.64L14.73,3.22l-1.84.72L12,1.62Zm.14,8.88L11,13a.51.51,0,0,1-.69.27l-3.88-1.7a.53.53,0,0,1-.28-.29l-.7-1.81a.5.5,0,0,1,.29-.67l1.81-.71a.55.55,0,0,1,.4,0l3.88,1.71A.51.51,0,0,1,12.13,10.5Zm-.7-6L6.13,6.57l-.8-2,5.31-2.07Z" transform="translate(1.45)"/></g></g></g></g></g></svg>